<svg width="15" height="14" viewBox="0 0 15 14" fill="none" xmlns="http://www.w3.org/2000/svg">
<path d="M7.08333 6.54167C6.69656 6.54167 6.32563 6.38802 6.05214 6.11453C5.77865 5.84104 5.625 5.47011 5.625 5.08333C5.625 4.69656 5.77865 4.32563 6.05214 4.05214C6.32563 3.77865 6.69656 3.625 7.08333 3.625C7.47011 3.625 7.84104 3.77865 8.11453 4.05214C8.38802 4.32563 8.54167 4.69656 8.54167 5.08333C8.54167 5.27484 8.50395 5.46448 8.43066 5.64141C8.35737 5.81835 8.24995 5.97911 8.11453 6.11453C7.97911 6.24995 7.81835 6.35737 7.64141 6.43066C7.46448 6.50395 7.27484 6.54167 7.08333 6.54167ZM7.08333 1C6.00037 1 4.96175 1.43021 4.19598 2.19598C3.43021 2.96175 3 4.00037 3 5.08333C3 8.14583 7.08333 12.6667 7.08333 12.6667C7.08333 12.6667 11.1667 8.14583 11.1667 5.08333C11.1667 4.00037 10.7365 2.96175 9.97069 2.19598C9.20491 1.43021 8.1663 1 7.08333 1Z" fill="#FDF9F5"/>
</svg>
