<svg width="65" height="64" viewBox="0 0 65 64" fill="none" xmlns="http://www.w3.org/2000/svg">
<path d="M32.5007 30.6666C30.7325 30.6666 29.0368 29.9642 27.7866 28.714C26.5364 27.4637 25.834 25.768 25.834 23.9999C25.834 22.2318 26.5364 20.5361 27.7866 19.2859C29.0368 18.0356 30.7325 17.3333 32.5007 17.3333C34.2688 17.3333 35.9645 18.0356 37.2147 19.2859C38.4649 20.5361 39.1673 22.2318 39.1673 23.9999C39.1673 24.8754 38.9949 25.7423 38.6598 26.5511C38.3248 27.36 37.8338 28.0949 37.2147 28.714C36.5956 29.333 35.8607 29.8241 35.0519 30.1591C34.243 30.4941 33.3761 30.6666 32.5007 30.6666ZM32.5007 5.33325C27.5499 5.33325 22.802 7.29991 19.3013 10.8006C15.8006 14.3013 13.834 19.0492 13.834 23.9999C13.834 37.9999 32.5007 58.6666 32.5007 58.6666C32.5007 58.6666 51.1673 37.9999 51.1673 23.9999C51.1673 19.0492 49.2007 14.3013 45.7 10.8006C42.1993 7.29991 37.4514 5.33325 32.5007 5.33325Z" fill="white"/>
</svg>
