<svg width="65" height="65" viewBox="0 0 65 65" fill="none" xmlns="http://www.w3.org/2000/svg">
<path d="M32.5 56.5001L54.1827 45.2787C55.0253 44.8414 55.4467 44.6254 55.7533 44.3027C56.025 44.0196 56.2307 43.6799 56.356 43.3081C56.5 42.8841 56.5 42.4121 56.5 41.4627V20.5881M32.5 56.5001L10.8173 45.2787C9.97467 44.8414 9.55333 44.6254 9.24667 44.3027C8.97504 44.0196 8.76926 43.6799 8.644 43.3081C8.5 42.8841 8.5 42.4094 8.5 41.4574V20.5881M32.5 56.5001V32.3321M56.5 20.5881L32.5 32.3321M56.5 20.5881L44.5 14.3747M8.5 20.5881L30.5507 9.17741C31.2653 8.80941 31.62 8.62275 31.996 8.55075C32.3289 8.48667 32.6711 8.48667 33.004 8.55075C33.3773 8.62275 33.7347 8.80941 34.4467 9.17741L44.5 14.3747M8.5 20.5881L20.5 26.4627M32.5 32.3321L20.5 26.4601M44.5 14.3747L20.5 26.4601M20.5 26.4601V32.3321" stroke="white" stroke-width="1.5" stroke-linecap="round" stroke-linejoin="round"/>
</svg>
