<svg width="370" height="162" viewBox="0 0 370 162" fill="none" xmlns="http://www.w3.org/2000/svg">
<path d="M356.97 160.953L357.037 160.61L42.8557 160.645C42.8557 160.645 42.6037 160.111 42.5435 160.01C42.5235 159.975 42.4986 159.932 42.4704 159.884C42.4303 159.814 42.3833 159.732 42.3291 159.638C42.3113 159.605 42.2914 159.57 42.2701 159.534C42.1983 159.406 42.117 159.261 42.0263 159.095C41.9154 158.893 41.7917 158.663 41.6551 158.408V158.406C41.1461 157.452 40.4711 156.129 39.7039 154.485C39.4517 153.945 39.1914 153.371 38.9215 152.763C38.8144 152.52 38.7072 152.274 38.5976 152.021V152.02C38.4915 151.776 38.3853 151.528 38.2794 151.273C38.2758 151.265 38.2723 151.257 38.2687 151.249C38.1957 151.074 38.1215 150.898 38.0472 150.717C37.9695 150.533 37.893 150.347 37.8151 150.159C37.4192 149.186 37.014 148.152 36.6109 147.062C36.6003 147.034 36.5897 147.005 36.5792 146.976C36.5792 146.976 36.5792 146.976 36.5792 146.975C36.3153 146.262 36.0525 145.526 35.7921 144.767C35.6483 144.35 35.5069 143.927 35.3655 143.497C35.3572 143.471 35.3478 143.445 35.3397 143.417C35.2773 143.226 35.216 143.035 35.1535 142.842C35.1017 142.679 35.0499 142.517 34.9993 142.353C34.8933 142.016 34.7871 141.676 34.6823 141.332C34.548 140.89 34.4149 140.441 34.2841 139.987C34.1074 139.371 33.9341 138.744 33.7657 138.107C33.715 137.916 33.6644 137.724 33.6148 137.532C33.4664 136.956 33.3204 136.372 33.1788 135.782C33.133 135.592 33.0881 135.403 33.0445 135.212C33.0163 135.094 32.9892 134.976 32.9621 134.858C32.7489 133.924 32.5462 132.972 32.3576 132.002C32.1491 130.935 31.957 129.846 31.7849 128.74C31.6259 127.718 31.4822 126.68 31.3584 125.628C31.2407 124.635 31.1404 123.63 31.0592 122.613C30.8659 120.234 30.7775 117.791 30.8151 115.304C30.8811 110.973 31.3348 106.504 32.3105 101.98C32.3457 101.815 32.3823 101.651 32.4189 101.486C32.6603 100.409 32.9302 99.331 33.233 98.2504C33.4627 97.4269 33.7113 96.6022 33.9789 95.7774C34.1733 95.1801 34.3771 94.5815 34.5915 93.983C35.0769 92.6279 35.6153 91.2731 36.2115 89.9192C36.3753 89.5445 36.5437 89.1698 36.7181 88.7952C39.9536 81.8142 44.7231 74.8991 51.511 68.3574C51.6381 68.2349 51.7655 68.1135 51.8915 67.9923C55.26 64.7745 58.5886 61.9737 61.8714 59.543C61.9927 59.4536 62.1128 59.3651 62.233 59.2766C98.2776 32.8498 128.746 50.7827 144.914 49.7895C148.095 49.5951 150.888 48.3308 153.635 46.3302C158.667 42.6623 163.536 36.5142 170.328 29.9149C180.512 20.0236 195.015 9.1166 220.862 4.01949C252.845 -2.28755 296.783 -0.51912 315.791 18.4365C327.29 29.9032 329.666 47.6581 314.756 73.7205C313.85 75.3042 312.879 76.9206 311.842 78.568C310.971 79.9512 310.212 81.2719 309.56 82.5316C307.92 85.6986 306.949 88.491 306.539 90.9795C305.555 96.9591 307.815 101.194 311.864 104.675C312.961 105.618 314.187 106.505 315.516 107.358C315.6 107.412 315.685 107.467 315.77 107.521C320.502 110.511 326.482 113.079 332.444 116.089C335.734 117.753 339.02 119.548 342.089 121.627C344.938 123.558 347.598 125.729 349.9 128.259C351.405 129.91 352.755 131.717 353.904 133.707C353.97 133.819 354.034 133.931 354.096 134.043C355.579 136.692 356.713 139.666 357.383 143.038C357.417 143.209 357.451 143.381 357.481 143.554C358.378 148.45 358.315 154.178 356.97 160.953Z" fill="#EBF3FA"/>
<path d="M314.755 73.7202L135.102 104.269L122.213 88.8137L315.791 18.4358C327.29 29.9024 329.665 47.6581 314.755 73.7202Z" fill="#F8FBFF"/>
<path d="M247.27 15.4373L153.635 46.3294C158.667 42.6614 163.535 36.5141 170.328 29.915L247.27 15.4373Z" fill="#F8FBFF"/>
<path d="M244.381 25.7434C242.107 25.7434 240.264 27.5865 240.264 29.8601C240.264 32.1339 242.107 33.9771 244.381 33.9771C246.654 33.9771 248.497 32.1339 248.497 29.8601C248.497 27.5865 246.654 25.7434 244.381 25.7434Z" fill="#F8FBFF"/>
<path d="M192.44 41.0325H171.061V144.997H192.44V41.0325Z" fill="#C4D9ED"/>
<path d="M197.242 41.0322H175.863V144.997H197.242V41.0322Z" fill="#D5E7F7"/>
<path d="M175.869 47.0122H197.242V41.0044H175.869V47.0122Z" fill="#C4D9ED"/>
<path d="M175.869 60.0417H197.242V54.0341H175.869V60.0417Z" fill="#C4D9ED"/>
<path d="M175.869 73.0715H197.242V67.0637H175.869V73.0715Z" fill="#C4D9ED"/>
<path d="M175.869 86.1013H197.242V80.0938H175.869V86.1013Z" fill="#C4D9ED"/>
<path d="M175.869 99.1311H197.242V93.1233H175.869V99.1311Z" fill="#C4D9ED"/>
<path d="M175.869 112.161H197.242V106.153H175.869V112.161Z" fill="#C4D9ED"/>
<path d="M175.869 125.191H197.242V119.183H175.869V125.191Z" fill="#C4D9ED"/>
<path d="M175.869 138.22H197.242V132.213H175.869V138.22Z" fill="#C4D9ED"/>
<path d="M226.617 55.7434H205.238V144.997H226.617V55.7434Z" fill="#C4D9ED"/>
<path d="M231.418 55.7432H210.039V144.997H231.418V55.7432Z" fill="#D5E7F7"/>
<path d="M210.046 60.8772H231.42V55.7195H210.046V60.8772Z" fill="#C4D9ED"/>
<path d="M210.046 72.063H231.42V66.9056H210.046V72.063Z" fill="#C4D9ED"/>
<path d="M210.046 83.249H231.42V78.0916H210.046V83.249Z" fill="#C4D9ED"/>
<path d="M210.046 94.4351H231.42V89.2774H210.046V94.4351Z" fill="#C4D9ED"/>
<path d="M210.046 105.621H231.42V100.464H210.046V105.621Z" fill="#C4D9ED"/>
<path d="M210.046 116.807H231.42V111.65H210.046V116.807Z" fill="#C4D9ED"/>
<path d="M210.046 127.993H231.42V122.836H210.046V127.993Z" fill="#C4D9ED"/>
<path d="M210.046 139.179H231.42V134.022H210.046V139.179Z" fill="#C4D9ED"/>
<path d="M159.491 154.863H168.443V141.808H159.491V154.863Z" fill="#DCEAF9"/>
<path d="M162.224 123.998V160.243H67.3913L66.7457 160.237L42.5435 160.01C42.5235 159.975 42.4986 159.932 42.4704 159.884C42.4303 159.814 42.3833 159.732 42.3291 159.638C42.3113 159.605 42.2914 159.57 42.2701 159.534C42.1983 159.405 42.117 159.261 42.0263 159.094C41.9154 158.893 41.7917 158.663 41.6551 158.407V158.406C41.1461 157.452 40.471 156.129 39.7039 154.485C39.4517 153.945 39.1914 153.37 38.9215 152.762C38.8144 152.52 38.7072 152.274 38.5976 152.021V152.02C38.4915 151.776 38.3853 151.527 38.2794 151.273C38.2758 151.265 38.2723 151.257 38.2687 151.248C38.1957 151.074 38.1215 150.897 38.0472 150.717C37.9695 150.533 37.893 150.347 37.8151 150.159C37.4192 149.185 37.014 148.152 36.6109 147.062C36.6003 147.034 36.5897 147.005 36.5792 146.976C36.5792 146.976 36.5792 146.976 36.5792 146.975C36.3153 146.262 36.0525 145.526 35.7921 144.767C35.6483 144.35 35.5069 143.927 35.3655 143.497C35.3572 143.471 35.3478 143.445 35.3396 143.417C35.2773 143.226 35.216 143.035 35.1535 142.842C35.1017 142.679 35.0499 142.517 34.9993 142.353C34.8933 142.016 34.7871 141.675 34.6823 141.331C34.548 140.89 34.4149 140.441 34.2841 139.987C34.1074 139.371 33.9341 138.744 33.7657 138.107C33.715 137.915 33.6644 137.723 33.6148 137.531C33.4664 136.955 33.3204 136.372 33.1788 135.782C33.133 135.592 33.0881 135.402 33.0445 135.212C33.0163 135.094 32.9892 134.976 32.9621 134.858C32.7489 133.924 32.5462 132.972 32.3576 132.002C32.1491 130.935 31.957 129.846 31.7849 128.74C31.6259 127.718 31.4822 126.68 31.3584 125.628C31.2407 124.634 31.1404 123.63 31.0591 122.613C30.8659 120.234 30.7775 117.791 30.8151 115.304C30.8811 110.973 31.3348 106.504 32.3105 101.979C32.3457 101.815 32.3823 101.651 32.4189 101.486C32.6603 100.409 32.9302 99.3308 33.233 98.2503C33.4627 97.4268 33.7113 96.602 33.9789 95.7773C34.1733 95.1799 34.3771 94.5813 34.5915 93.9828C35.0769 92.6278 35.6153 91.2729 36.2115 89.919H36.7181V88.795C39.9535 81.8141 44.7231 74.899 51.511 68.3573C51.6381 68.2347 51.7655 68.1134 51.8915 67.9922H52.2886V81.8564H64.5589V59.2645H78.0978V73.9301H81.1848V56.4214H94.7238V89.2482H111.847V108.39H118.245V113.212H132.941V104.908H141.379V82.3439H151.802V123.998H162.224Z" fill="#D5E7F7"/>
<path d="M81.1857 61.9819H94.7324V58.6372H81.1857V61.9819Z" fill="#C4D9ED"/>
<path d="M81.1857 68.2656H94.7324V64.9208H81.1857V68.2656Z" fill="#C4D9ED"/>
<path d="M81.1857 73.9185H94.7324V70.5736H81.1857V73.9185Z" fill="#C4D9ED"/>
<path d="M64.5628 73.9185H78.1094V70.5736H64.5628V73.9185Z" fill="#C4D9ED"/>
<path d="M64.5628 68.2656H78.1094V64.9208H64.5628V68.2656Z" fill="#C4D9ED"/>
<path d="M64.5628 62.6211H78.1094V59.2762H64.5628V62.6211Z" fill="#C4D9ED"/>
<path d="M64.5589 79.3994H94.7324V76.0548H64.5589V79.3994Z" fill="#C4D9ED"/>
<path d="M64.5589 84.8809H94.7324V81.5361H64.5589V84.8809Z" fill="#C4D9ED"/>
<path d="M141.282 87.5093H151.797V82.3464H141.282V87.5093Z" fill="#C4D9ED"/>
<path d="M141.282 95.1875H151.797V90.0247H141.282V95.1875Z" fill="#C4D9ED"/>
<path d="M141.282 102.865H151.797V97.7026H141.282V102.865Z" fill="#C4D9ED"/>
<path d="M141.282 110.914H151.797V105.751H141.282V110.914Z" fill="#C4D9ED"/>
<path d="M141.282 118.713H151.797V113.55H141.282V118.713Z" fill="#C4D9ED"/>
<path d="M141.282 126.512H151.797V121.349H141.282V126.512Z" fill="#C4D9ED"/>
<path d="M141.282 134.671H151.797V129.508H141.282V134.671Z" fill="#C4D9ED"/>
<path d="M64.5589 89.0164H94.7324V86.893H64.5589V89.0164Z" fill="#C4D9ED"/>
<path d="M141.427 82.3464H137.551V104.909H141.427V82.3464Z" fill="#C4D9ED"/>
<path d="M132.941 104.909H125.143V113.213H132.941V104.909Z" fill="#C4D9ED"/>
<path d="M64.562 59.2761V62.6212L64.5596 76.0544L64.5586 79.3994V81.8559H61.8711V59.5425C61.9924 59.4531 62.1125 59.3646 62.2327 59.2761H64.562Z" fill="#C4D9ED"/>
<path d="M81.1852 56.4214H79.5332V73.9186H81.1852V56.4214Z" fill="#C4D9ED"/>
<g opacity="0.8">
<path d="M106.754 95.7771H109.049V92.542H106.754V95.7771Z" fill="#C4D9ED"/>
<path d="M102.463 95.7771H104.758V92.542H102.463V95.7771Z" fill="#C4D9ED"/>
<path d="M98.2653 95.7771H100.561V92.542H98.2653V95.7771Z" fill="#C4D9ED"/>
<path d="M94.2869 95.7771H96.582V92.542H94.2869V95.7771Z" fill="#C4D9ED"/>
<path d="M90.2322 95.7771H92.5273V92.542H90.2322V95.7771Z" fill="#C4D9ED"/>
<path d="M86.1305 95.7771H88.4258V92.542H86.1305V95.7771Z" fill="#C4D9ED"/>
<path d="M81.8394 95.7771H84.1348V92.542H81.8394V95.7771Z" fill="#C4D9ED"/>
<path d="M77.6423 95.7771H79.9375V92.542H77.6423V95.7771Z" fill="#C4D9ED"/>
<path d="M73.6637 95.7771H75.959V92.542H73.6637V95.7771Z" fill="#C4D9ED"/>
<path d="M69.6092 95.7771H71.9043V92.542H69.6092V95.7771Z" fill="#C4D9ED"/>
<path d="M65.3844 95.7769H67.6797V92.5417H65.3844V95.7769Z" fill="#C4D9ED"/>
<path d="M61.0916 95.7769H63.3867V92.5417H61.0916V95.7769Z" fill="#C4D9ED"/>
<path d="M56.8963 95.7769H59.1914V92.5417H56.8963V95.7769Z" fill="#C4D9ED"/>
<path d="M52.9177 95.7769H55.2129V92.5417H52.9177V95.7769Z" fill="#C4D9ED"/>
<path d="M48.863 95.7769H51.1582V92.5417H48.863V95.7769Z" fill="#C4D9ED"/>
<path d="M44.7615 95.7769H47.0566V92.5417H44.7615V95.7769Z" fill="#C4D9ED"/>
<path d="M40.4704 95.7769H42.7656V92.5417H40.4704V95.7769Z" fill="#C4D9ED"/>
<path d="M36.2731 95.7769H38.5684V92.5417H36.2731V95.7769Z" fill="#C4D9ED"/>
<path d="M34.5911 93.9824V95.7769H33.9785C34.173 95.1795 34.3767 94.5809 34.5911 93.9824Z" fill="#C4D9ED"/>
<path d="M106.754 101.486H109.049V98.2507H106.754V101.486Z" fill="#C4D9ED"/>
<path d="M102.463 101.486H104.758V98.2507H102.463V101.486Z" fill="#C4D9ED"/>
<path d="M98.2653 101.486H100.561V98.2507H98.2653V101.486Z" fill="#C4D9ED"/>
<path d="M94.2869 101.486H96.582V98.2507H94.2869V101.486Z" fill="#C4D9ED"/>
<path d="M90.2322 101.486H92.5273V98.2507H90.2322V101.486Z" fill="#C4D9ED"/>
<path d="M86.1305 101.486H88.4258V98.2507H86.1305V101.486Z" fill="#C4D9ED"/>
<path d="M81.8394 101.486H84.1348V98.2507H81.8394V101.486Z" fill="#C4D9ED"/>
<path d="M77.6423 101.486H79.9375V98.2507H77.6423V101.486Z" fill="#C4D9ED"/>
<path d="M73.6637 101.486H75.959V98.2507H73.6637V101.486Z" fill="#C4D9ED"/>
<path d="M69.6092 101.486H71.9043V98.2507H69.6092V101.486Z" fill="#C4D9ED"/>
<path d="M65.3844 101.486H67.6797V98.2504H65.3844V101.486Z" fill="#C4D9ED"/>
<path d="M61.0916 101.486H63.3867V98.2504H61.0916V101.486Z" fill="#C4D9ED"/>
<path d="M56.8963 101.486H59.1914V98.2504H56.8963V101.486Z" fill="#C4D9ED"/>
<path d="M52.9177 101.486H55.2129V98.2504H52.9177V101.486Z" fill="#C4D9ED"/>
<path d="M48.863 101.486H51.1582V98.2504H48.863V101.486Z" fill="#C4D9ED"/>
<path d="M44.7615 101.486H47.0566V98.2504H44.7615V101.486Z" fill="#C4D9ED"/>
<path d="M40.4684 101.486H42.7637V98.2504H40.4684V101.486Z" fill="#C4D9ED"/>
<path d="M36.2731 101.486H38.5684V98.2504H36.2731V101.486Z" fill="#C4D9ED"/>
<path d="M34.5906 98.25V101.486H32.418C32.6594 100.409 32.9293 99.3305 33.2321 98.25H34.5906Z" fill="#C4D9ED"/>
<path d="M106.754 107.107H109.049V103.872H106.754V107.107Z" fill="#C4D9ED"/>
<path d="M102.463 107.107H104.758V103.872H102.463V107.107Z" fill="#C4D9ED"/>
<path d="M98.2653 107.107H100.561V103.872H98.2653V107.107Z" fill="#C4D9ED"/>
<path d="M94.2869 107.107H96.582V103.872H94.2869V107.107Z" fill="#C4D9ED"/>
<path d="M90.2322 107.107H92.5273V103.872H90.2322V107.107Z" fill="#C4D9ED"/>
<path d="M86.1305 107.107H88.4258V103.872H86.1305V107.107Z" fill="#C4D9ED"/>
<path d="M81.8394 107.107H84.1348V103.872H81.8394V107.107Z" fill="#C4D9ED"/>
<path d="M77.6423 107.107H79.9375V103.872H77.6423V107.107Z" fill="#C4D9ED"/>
<path d="M73.6637 107.107H75.959V103.872H73.6637V107.107Z" fill="#C4D9ED"/>
<path d="M69.6092 107.107H71.9043V103.872H69.6092V107.107Z" fill="#C4D9ED"/>
<path d="M65.3844 107.107H67.6797V103.872H65.3844V107.107Z" fill="#C4D9ED"/>
<path d="M61.0916 107.107H63.3867V103.872H61.0916V107.107Z" fill="#C4D9ED"/>
<path d="M56.8963 107.107H59.1914V103.872H56.8963V107.107Z" fill="#C4D9ED"/>
<path d="M52.9177 107.107H55.2129V103.872H52.9177V107.107Z" fill="#C4D9ED"/>
<path d="M48.863 107.107H51.1582V103.872H48.863V107.107Z" fill="#C4D9ED"/>
<path d="M44.7615 107.107H47.0566V103.872H44.7615V107.107Z" fill="#C4D9ED"/>
<path d="M40.4684 107.107H42.7637V103.872H40.4684V107.107Z" fill="#C4D9ED"/>
<path d="M36.2731 107.107H38.5684V103.872H36.2731V107.107Z" fill="#C4D9ED"/>
<path d="M32.2946 107.107H34.5898V103.872H32.2946V107.107Z" fill="#C4D9ED"/>
<path d="M106.754 113.08H109.049V109.844H106.754V113.08Z" fill="#C4D9ED"/>
<path d="M102.463 113.08H104.758V109.844H102.463V113.08Z" fill="#C4D9ED"/>
<path d="M98.2653 113.08H100.561V109.844H98.2653V113.08Z" fill="#C4D9ED"/>
<path d="M94.2869 113.08H96.582V109.844H94.2869V113.08Z" fill="#C4D9ED"/>
<path d="M90.2322 113.08H92.5273V109.844H90.2322V113.08Z" fill="#C4D9ED"/>
<path d="M86.1305 113.08H88.4258V109.844H86.1305V113.08Z" fill="#C4D9ED"/>
<path d="M81.8394 113.08H84.1348V109.844H81.8394V113.08Z" fill="#C4D9ED"/>
<path d="M77.6423 113.08H79.9375V109.844H77.6423V113.08Z" fill="#C4D9ED"/>
<path d="M73.6637 113.08H75.959V109.844H73.6637V113.08Z" fill="#C4D9ED"/>
<path d="M69.6092 113.08H71.9043V109.844H69.6092V113.08Z" fill="#C4D9ED"/>
<path d="M65.3844 113.079H67.6797V109.844H65.3844V113.079Z" fill="#C4D9ED"/>
<path d="M61.0916 113.079H63.3867V109.844H61.0916V113.079Z" fill="#C4D9ED"/>
<path d="M56.8963 113.079H59.1914V109.844H56.8963V113.079Z" fill="#C4D9ED"/>
<path d="M52.9177 113.079H55.2129V109.844H52.9177V113.079Z" fill="#C4D9ED"/>
<path d="M48.863 113.079H51.1582V109.844H48.863V113.079Z" fill="#C4D9ED"/>
<path d="M44.7615 113.079H47.0566V109.844H44.7615V113.079Z" fill="#C4D9ED"/>
<path d="M40.4684 113.079H42.7637V109.844H40.4684V113.079Z" fill="#C4D9ED"/>
<path d="M36.2731 113.079H38.5684V109.844H36.2731V113.079Z" fill="#C4D9ED"/>
<path d="M32.2946 113.079H34.5898V109.844H32.2946V113.079Z" fill="#C4D9ED"/>
<path d="M106.754 118.788H109.049V115.553H106.754V118.788Z" fill="#C4D9ED"/>
<path d="M102.463 118.788H104.758V115.553H102.463V118.788Z" fill="#C4D9ED"/>
<path d="M98.2653 118.788H100.561V115.553H98.2653V118.788Z" fill="#C4D9ED"/>
<path d="M94.2869 118.788H96.582V115.553H94.2869V118.788Z" fill="#C4D9ED"/>
<path d="M90.2322 118.788H92.5273V115.553H90.2322V118.788Z" fill="#C4D9ED"/>
<path d="M86.1305 118.788H88.4258V115.553H86.1305V118.788Z" fill="#C4D9ED"/>
<path d="M81.8394 118.788H84.1348V115.553H81.8394V118.788Z" fill="#C4D9ED"/>
<path d="M77.6423 118.788H79.9375V115.553H77.6423V118.788Z" fill="#C4D9ED"/>
<path d="M73.6637 118.788H75.959V115.553H73.6637V118.788Z" fill="#C4D9ED"/>
<path d="M69.6092 118.788H71.9043V115.553H69.6092V118.788Z" fill="#C4D9ED"/>
<path d="M65.3844 118.788H67.6797V115.553H65.3844V118.788Z" fill="#C4D9ED"/>
<path d="M61.0916 118.788H63.3867V115.553H61.0916V118.788Z" fill="#C4D9ED"/>
<path d="M56.8963 118.788H59.1914V115.553H56.8963V118.788Z" fill="#C4D9ED"/>
<path d="M52.9177 118.788H55.2129V115.553H52.9177V118.788Z" fill="#C4D9ED"/>
<path d="M48.863 118.788H51.1582V115.553H48.863V118.788Z" fill="#C4D9ED"/>
<path d="M44.7615 118.788H47.0566V115.553H44.7615V118.788Z" fill="#C4D9ED"/>
<path d="M40.4684 118.788H42.7637V115.553H40.4684V118.788Z" fill="#C4D9ED"/>
<path d="M36.2731 118.788H38.5684V115.553H36.2731V118.788Z" fill="#C4D9ED"/>
<path d="M32.2946 118.788H34.5898V115.553H32.2946V118.788Z" fill="#C4D9ED"/>
<path d="M106.754 124.41H109.049V121.175H106.754V124.41Z" fill="#C4D9ED"/>
<path d="M102.463 124.41H104.758V121.175H102.463V124.41Z" fill="#C4D9ED"/>
<path d="M98.2653 124.41H100.561V121.175H98.2653V124.41Z" fill="#C4D9ED"/>
<path d="M94.2869 124.41H96.582V121.175H94.2869V124.41Z" fill="#C4D9ED"/>
<path d="M90.2322 124.41H92.5273V121.175H90.2322V124.41Z" fill="#C4D9ED"/>
<path d="M86.1305 124.41H88.4258V121.175H86.1305V124.41Z" fill="#C4D9ED"/>
<path d="M81.8394 124.41H84.1348V121.175H81.8394V124.41Z" fill="#C4D9ED"/>
<path d="M77.6423 124.41H79.9375V121.175H77.6423V124.41Z" fill="#C4D9ED"/>
<path d="M73.6637 124.41H75.959V121.175H73.6637V124.41Z" fill="#C4D9ED"/>
<path d="M69.6092 124.41H71.9043V121.175H69.6092V124.41Z" fill="#C4D9ED"/>
<path d="M65.3844 124.409H67.6797V121.174H65.3844V124.409Z" fill="#C4D9ED"/>
<path d="M61.0916 124.409H63.3867V121.174H61.0916V124.409Z" fill="#C4D9ED"/>
<path d="M56.8963 124.409H59.1914V121.174H56.8963V124.409Z" fill="#C4D9ED"/>
<path d="M52.9177 124.409H55.2129V121.174H52.9177V124.409Z" fill="#C4D9ED"/>
<path d="M48.863 124.409H51.1582V121.174H48.863V124.409Z" fill="#C4D9ED"/>
<path d="M44.7615 124.409H47.0566V121.174H44.7615V124.409Z" fill="#C4D9ED"/>
<path d="M40.4684 124.409H42.7637V121.174H40.4684V124.409Z" fill="#C4D9ED"/>
<path d="M36.2731 124.409H38.5684V121.174H36.2731V124.409Z" fill="#C4D9ED"/>
<path d="M32.2946 124.409H34.5898V121.174H32.2946V124.409Z" fill="#C4D9ED"/>
</g>
<path d="M71.8691 160.61L125.142 160.636V131.31H71.9438L71.8691 160.61Z" fill="#C4D9ED"/>
<path d="M112.284 160.01H165.482V145.66H112.284V160.01Z" fill="#C4D9ED"/>
<path d="M67.6789 135.782V160.609L42.8546 160.645C42.8345 160.609 42.4975 159.932 42.4693 159.884C42.4292 159.814 42.3822 159.732 42.328 159.638C42.3102 159.605 42.2903 159.57 42.269 159.534C42.1972 159.405 42.1159 159.261 42.0252 159.094C41.9143 158.893 41.7906 158.663 41.654 158.407V158.406C41.145 157.452 40.47 156.129 39.7028 154.485C39.4506 153.945 39.1903 153.37 38.9204 152.762C38.8133 152.52 38.7061 152.274 38.5965 152.021V152.02C38.4904 151.776 38.3842 151.527 38.2783 151.273C38.2747 151.265 38.2712 151.257 38.2676 151.249C38.1946 151.074 38.1204 150.897 38.0461 150.717C37.9684 150.533 37.8919 150.347 37.814 150.159C37.4181 149.186 37.0129 148.152 36.6098 147.062C36.5992 147.034 36.5886 147.005 36.5781 146.976C36.5781 146.976 36.5781 146.976 36.5781 146.975C36.3142 146.262 36.0514 145.526 35.791 144.767C35.6472 144.35 35.5058 143.927 35.3644 143.497C35.3561 143.471 35.3467 143.445 35.3386 143.417C35.2762 143.226 35.2149 143.035 35.1524 142.842C35.1006 142.679 35.0488 142.517 34.9982 142.353C34.8922 142.016 34.786 141.676 34.6812 141.331C34.5469 140.89 34.4138 140.441 34.283 139.987C34.1063 139.371 33.933 138.744 33.7646 138.107C33.7139 137.916 33.6633 137.724 33.6137 137.532C33.4653 136.955 33.3193 136.372 33.1777 135.782H67.6789V135.782Z" fill="#C4D9ED"/>
<path d="M111.678 139.986H121.59V134.671H111.678V139.986Z" fill="#D5E7F7"/>
<path d="M98.9536 139.986H108.865V134.671H98.9536V139.986Z" fill="#D5E7F7"/>
<path d="M86.4732 139.986H96.3848V134.671H86.4732V139.986Z" fill="#D5E7F7"/>
<path d="M74.233 139.986H84.1445V134.671H74.233V139.986Z" fill="#D5E7F7"/>
<path d="M72.4968 131.31H67.3906V160.61H72.4968V131.31Z" fill="#ADC9E0"/>
<path d="M149.427 82.3464H149.703V80.0997H149.427V82.3464Z" fill="#DCEAF9"/>
<path d="M139.493 82.3464H139.77V80.0997H139.493V82.3464Z" fill="#DCEAF9"/>
<path d="M31.3574 125.628C31.4812 126.68 31.6248 127.718 31.784 128.739C31.956 129.846 32.1482 130.934 32.3566 132.002C32.5452 132.972 32.7478 133.924 32.9612 134.858C32.9882 134.976 33.0154 135.094 33.0436 135.211C33.0872 135.402 33.1321 135.592 33.1779 135.782C33.3194 136.372 33.4655 136.955 33.6139 137.531C33.6634 137.723 33.714 137.915 33.7647 138.106C33.9331 138.744 34.1064 139.37 34.2831 139.987C34.4139 140.44 34.547 140.889 34.6813 141.331C34.7862 141.675 34.8923 142.016 34.9983 142.353C35.049 142.517 35.1008 142.679 35.1525 142.842C35.215 143.035 35.2763 143.226 35.3387 143.417C35.3468 143.445 35.3564 143.471 35.3646 143.497C35.506 143.927 35.6472 144.35 35.7911 144.767C36.0515 145.526 36.3143 146.262 36.5782 146.975C36.5782 146.976 36.5782 146.976 36.5782 146.976C36.5887 147.004 36.5993 147.034 36.6099 147.062C37.0129 148.152 37.4183 149.185 37.8141 150.158C37.892 150.347 37.9685 150.533 38.0462 150.717C38.1205 150.897 38.1948 151.074 38.2677 151.248C38.2714 151.256 38.2748 151.265 38.2785 151.273V125.627H31.3574V125.628Z" fill="#D5E7F7"/>
<path d="M38.2798 135.211V151.273C38.2762 151.265 38.2727 151.257 38.2691 151.248C38.1961 151.074 38.1219 150.897 38.0476 150.717C37.9698 150.533 37.8934 150.347 37.8155 150.159C37.4196 149.185 37.0144 148.152 36.6113 147.062C36.6007 147.034 36.5901 147.005 36.5796 146.976C36.5796 146.976 36.5796 146.976 36.5796 146.975C36.3157 146.262 36.0529 145.526 35.7925 144.767C35.6487 144.35 35.5073 143.927 35.3659 143.497C35.3576 143.471 35.3482 143.445 35.34 143.417C35.2777 143.226 35.2164 143.035 35.1539 142.842C35.1021 142.679 35.0502 142.517 34.9996 142.353C34.8937 142.016 34.7875 141.676 34.6827 141.331C34.5484 140.89 34.4153 140.441 34.2845 139.987C34.1077 139.371 33.9345 138.744 33.7661 138.107C33.7153 137.915 33.6648 137.723 33.6152 137.532C33.4668 136.955 33.3208 136.372 33.1792 135.782C33.1334 135.592 33.0885 135.402 33.0449 135.212H38.2798V135.211Z" fill="#D5E7F7"/>
<path d="M38.2794 132.002V139.987H34.2839C34.1072 139.371 33.934 138.744 33.7655 138.107C33.7148 137.915 33.6642 137.723 33.6147 137.531C33.4663 136.955 33.3202 136.372 33.1787 135.782C33.1329 135.592 33.088 135.402 33.0444 135.212C33.0162 135.094 32.989 134.976 32.962 134.858C32.7488 133.924 32.5461 132.972 32.3574 132.002H38.2794V132.002Z" fill="#C4D9ED"/>
<path d="M35.7928 142.353V144.767C35.6491 144.35 35.5077 143.927 35.3663 143.497C35.358 143.471 35.3485 143.445 35.3404 143.417C35.278 143.226 35.2167 143.035 35.1542 142.842C35.1025 142.679 35.0506 142.517 35 142.353L35.7928 142.353Z" fill="#C4D9ED"/>
<path d="M33.9158 136.973H35.4922V134.245H33.9158V136.973Z" fill="#ADC9E0"/>
<path d="M155.413 159.777H191.939V135.212H155.413V159.777Z" fill="#D5E7F7"/>
<path d="M155.413 139.986H191.939V132.002H155.413V139.986Z" fill="#C4D9ED"/>
<path d="M187.575 144.997H189.451V142.352H187.575V144.997Z" fill="#C4D9ED"/>
<path d="M184.067 144.997H185.943V142.352H184.067V144.997Z" fill="#C4D9ED"/>
<path d="M180.638 144.997H182.514V142.352H180.638V144.997Z" fill="#C4D9ED"/>
<path d="M177.386 144.997H179.262V142.352H177.386V144.997Z" fill="#C4D9ED"/>
<path d="M174.073 144.997H175.949V142.352H174.073V144.997Z" fill="#C4D9ED"/>
<path d="M170.72 144.997H172.596V142.352H170.72V144.997Z" fill="#C4D9ED"/>
<path d="M167.212 144.997H169.088V142.352H167.212V144.997Z" fill="#C4D9ED"/>
<path d="M163.782 144.997H165.658V142.352H163.782V144.997Z" fill="#C4D9ED"/>
<path d="M160.53 144.997H162.406V142.352H160.53V144.997Z" fill="#C4D9ED"/>
<path d="M157.218 144.997H159.094V142.352H157.218V144.997Z" fill="#C4D9ED"/>
<path d="M187.575 149.663H189.451V147.018H187.575V149.663Z" fill="#C4D9ED"/>
<path d="M184.067 149.663H185.943V147.018H184.067V149.663Z" fill="#C4D9ED"/>
<path d="M180.638 149.663H182.514V147.018H180.638V149.663Z" fill="#C4D9ED"/>
<path d="M177.386 149.663H179.262V147.018H177.386V149.663Z" fill="#C4D9ED"/>
<path d="M174.073 149.663H175.949V147.018H174.073V149.663Z" fill="#C4D9ED"/>
<path d="M170.72 149.663H172.596V147.018H170.72V149.663Z" fill="#C4D9ED"/>
<path d="M167.212 149.663H169.088V147.018H167.212V149.663Z" fill="#C4D9ED"/>
<path d="M163.782 149.663H165.658V147.018H163.782V149.663Z" fill="#C4D9ED"/>
<path d="M160.53 149.663H162.406V147.018H160.53V149.663Z" fill="#C4D9ED"/>
<path d="M157.218 149.663H159.094V147.018H157.218V149.663Z" fill="#C4D9ED"/>
<path d="M187.575 154.257H189.451V151.613H187.575V154.257Z" fill="#C4D9ED"/>
<path d="M184.067 154.257H185.943V151.613H184.067V154.257Z" fill="#C4D9ED"/>
<path d="M180.638 154.257H182.514V151.613H180.638V154.257Z" fill="#C4D9ED"/>
<path d="M177.386 154.257H179.262V151.613H177.386V154.257Z" fill="#C4D9ED"/>
<path d="M174.073 154.257H175.949V151.613H174.073V154.257Z" fill="#C4D9ED"/>
<path d="M170.72 154.257H172.596V151.613H170.72V154.257Z" fill="#C4D9ED"/>
<path d="M167.212 154.257H169.088V151.613H167.212V154.257Z" fill="#C4D9ED"/>
<path d="M163.782 154.257H165.658V151.613H163.782V154.257Z" fill="#C4D9ED"/>
<path d="M160.53 154.257H162.406V151.613H160.53V154.257Z" fill="#C4D9ED"/>
<path d="M157.218 154.257H159.094V151.613H157.218V154.257Z" fill="#C4D9ED"/>
<path d="M187.576 136.973H189.152V134.245H187.576V136.973Z" fill="#ADC9E0"/>
<path d="M171.925 136.973H173.502V134.245H171.925V136.973Z" fill="#ADC9E0"/>
<path d="M159.476 136.973H161.053V134.245H159.476V136.973Z" fill="#ADC9E0"/>
<path d="M194.233 159.777H230.76V135.212H194.233V159.777Z" fill="#D5E7F7"/>
<path d="M194.233 139.986H230.76V132.002H194.233V139.986Z" fill="#C4D9ED"/>
<path d="M226.396 144.997H228.271V142.352H226.396V144.997Z" fill="#C4D9ED"/>
<path d="M222.888 144.997H224.764V142.352H222.888V144.997Z" fill="#C4D9ED"/>
<path d="M219.458 144.997H221.334V142.352H219.458V144.997Z" fill="#C4D9ED"/>
<path d="M216.206 144.997H218.082V142.352H216.206V144.997Z" fill="#C4D9ED"/>
<path d="M212.894 144.997H214.77V142.352H212.894V144.997Z" fill="#C4D9ED"/>
<path d="M209.54 144.997H211.416V142.352H209.54V144.997Z" fill="#C4D9ED"/>
<path d="M206.032 144.997H207.908V142.352H206.032V144.997Z" fill="#C4D9ED"/>
<path d="M202.603 144.997H204.479V142.352H202.603V144.997Z" fill="#C4D9ED"/>
<path d="M199.351 144.997H201.227V142.352H199.351V144.997Z" fill="#C4D9ED"/>
<path d="M196.038 144.997H197.914V142.352H196.038V144.997Z" fill="#C4D9ED"/>
<path d="M226.396 149.663H228.271V147.018H226.396V149.663Z" fill="#C4D9ED"/>
<path d="M222.888 149.663H224.764V147.018H222.888V149.663Z" fill="#C4D9ED"/>
<path d="M219.458 149.663H221.334V147.018H219.458V149.663Z" fill="#C4D9ED"/>
<path d="M216.206 149.663H218.082V147.018H216.206V149.663Z" fill="#C4D9ED"/>
<path d="M212.894 149.663H214.77V147.018H212.894V149.663Z" fill="#C4D9ED"/>
<path d="M209.54 149.663H211.416V147.018H209.54V149.663Z" fill="#C4D9ED"/>
<path d="M206.032 149.663H207.908V147.018H206.032V149.663Z" fill="#C4D9ED"/>
<path d="M202.603 149.663H204.479V147.018H202.603V149.663Z" fill="#C4D9ED"/>
<path d="M199.351 149.663H201.227V147.018H199.351V149.663Z" fill="#C4D9ED"/>
<path d="M196.038 149.663H197.914V147.018H196.038V149.663Z" fill="#C4D9ED"/>
<path d="M226.396 154.257H228.271V151.613H226.396V154.257Z" fill="#C4D9ED"/>
<path d="M222.888 154.257H224.764V151.613H222.888V154.257Z" fill="#C4D9ED"/>
<path d="M219.458 154.257H221.334V151.613H219.458V154.257Z" fill="#C4D9ED"/>
<path d="M216.206 154.257H218.082V151.613H216.206V154.257Z" fill="#C4D9ED"/>
<path d="M212.894 154.257H214.77V151.613H212.894V154.257Z" fill="#C4D9ED"/>
<path d="M209.54 154.257H211.416V151.613H209.54V154.257Z" fill="#C4D9ED"/>
<path d="M206.032 154.257H207.908V151.613H206.032V154.257Z" fill="#C4D9ED"/>
<path d="M202.603 154.257H204.479V151.613H202.603V154.257Z" fill="#C4D9ED"/>
<path d="M199.351 154.257H201.227V151.613H199.351V154.257Z" fill="#C4D9ED"/>
<path d="M196.038 154.257H197.914V151.613H196.038V154.257Z" fill="#C4D9ED"/>
<path d="M226.396 136.973H227.973V134.245H226.396V136.973Z" fill="#ADC9E0"/>
<path d="M210.746 136.973H212.322V134.245H210.746V136.973Z" fill="#ADC9E0"/>
<path d="M198.297 136.973H199.873V134.245H198.297V136.973Z" fill="#ADC9E0"/>
<path d="M269.666 135.212H233.139V160.604H269.666V135.212Z" fill="#D5E7F7"/>
<path d="M233.139 139.987H269.666V132.002H233.139V139.987Z" fill="#C4D9ED"/>
<path d="M265.304 144.997H267.18V142.353H265.304V144.997Z" fill="#C4D9ED"/>
<path d="M261.796 144.997H263.672V142.353H261.796V144.997Z" fill="#C4D9ED"/>
<path d="M258.366 144.997H260.242V142.353H258.366V144.997Z" fill="#C4D9ED"/>
<path d="M255.114 144.997H256.99V142.353H255.114V144.997Z" fill="#C4D9ED"/>
<path d="M251.802 144.997H253.678V142.353H251.802V144.997Z" fill="#C4D9ED"/>
<path d="M248.448 144.997H250.324V142.353H248.448V144.997Z" fill="#C4D9ED"/>
<path d="M244.94 144.997H246.816V142.353H244.94V144.997Z" fill="#C4D9ED"/>
<path d="M241.511 144.997H243.387V142.353H241.511V144.997Z" fill="#C4D9ED"/>
<path d="M238.259 144.997H240.135V142.353H238.259V144.997Z" fill="#C4D9ED"/>
<path d="M234.946 144.997H236.822V142.353H234.946V144.997Z" fill="#C4D9ED"/>
<path d="M265.304 149.663H267.18V147.019H265.304V149.663Z" fill="#C4D9ED"/>
<path d="M261.796 149.663H263.672V147.019H261.796V149.663Z" fill="#C4D9ED"/>
<path d="M258.366 149.663H260.242V147.019H258.366V149.663Z" fill="#C4D9ED"/>
<path d="M255.114 149.663H256.99V147.019H255.114V149.663Z" fill="#C4D9ED"/>
<path d="M251.802 149.663H253.678V147.019H251.802V149.663Z" fill="#C4D9ED"/>
<path d="M248.448 149.663H250.324V147.019H248.448V149.663Z" fill="#C4D9ED"/>
<path d="M244.94 149.663H246.816V147.019H244.94V149.663Z" fill="#C4D9ED"/>
<path d="M241.511 149.663H243.387V147.019H241.511V149.663Z" fill="#C4D9ED"/>
<path d="M238.259 149.663H240.135V147.019H238.259V149.663Z" fill="#C4D9ED"/>
<path d="M234.946 149.663H236.822V147.019H234.946V149.663Z" fill="#C4D9ED"/>
<path d="M265.304 154.257H267.18V151.613H265.304V154.257Z" fill="#C4D9ED"/>
<path d="M261.796 154.257H263.672V151.613H261.796V154.257Z" fill="#C4D9ED"/>
<path d="M258.366 154.257H260.242V151.613H258.366V154.257Z" fill="#C4D9ED"/>
<path d="M255.114 154.257H256.99V151.613H255.114V154.257Z" fill="#C4D9ED"/>
<path d="M251.802 154.257H253.678V151.613H251.802V154.257Z" fill="#C4D9ED"/>
<path d="M248.448 154.257H250.324V151.613H248.448V154.257Z" fill="#C4D9ED"/>
<path d="M244.94 154.257H246.816V151.613H244.94V154.257Z" fill="#C4D9ED"/>
<path d="M241.511 154.257H243.387V151.613H241.511V154.257Z" fill="#C4D9ED"/>
<path d="M238.259 154.257H240.135V151.613H238.259V154.257Z" fill="#C4D9ED"/>
<path d="M234.946 154.257H236.822V151.613H234.946V154.257Z" fill="#C4D9ED"/>
<path d="M265.302 136.973H266.879V134.246H265.302V136.973Z" fill="#ADC9E0"/>
<path d="M249.652 136.973H251.229V134.246H249.652V136.973Z" fill="#ADC9E0"/>
<path d="M237.203 136.973H238.779V134.246H237.203V136.973Z" fill="#ADC9E0"/>
<path d="M350.464 160.537H330.822C329.769 159.644 331.55 157.616 333.411 157.48C334.219 157.419 335.241 157.588 336.409 157.835C336.679 154.244 338.223 138.105 344.041 138.753C350.582 139.479 344.041 145.861 342.191 149.639C340.822 152.438 339.377 156.451 338.716 158.345C339.247 158.46 339.797 158.572 340.359 158.676C341.226 156.014 344.452 147.059 348.554 147.581C353.371 148.192 351.435 151.782 348.021 153.913C345.516 155.48 342.441 157.708 340.979 158.784C342.217 158.986 343.51 159.122 344.821 159.092C348.185 159.012 349.828 160.003 350.464 160.537Z" fill="#A8D29F"/>
<path d="M262.017 53.0598C262.017 53.0598 261.386 50.0288 259.807 49.3344C258.229 48.6396 257.282 45.8613 256.65 46.619C256.019 47.3766 256.84 52.4284 258.039 53.0598C259.239 53.6912 259.807 54.3436 259.807 54.3436L262.017 53.0598Z" fill="#9C5F33"/>
<path d="M289.117 40.9971C289.117 40.9971 279.054 58.5486 275.403 61.7781L262.018 51.7982C262.018 51.7982 260.075 52.3938 259.225 54.3438C259.225 54.3438 267.353 70.9048 275.357 71.6068C283.36 72.3089 294.593 51.7567 294.593 51.7567L289.117 40.9971Z" fill="#E58638"/>
<path d="M320.259 149.594C320.259 149.594 322.585 151.75 322.131 153.282C321.677 154.814 319.578 155.836 319.294 157.708C319.01 159.581 317.875 160.602 316.854 160.602C315.833 160.602 311.984 160.602 311.984 160.602C311.984 160.602 311.232 159.284 313.048 158.887C314.864 158.49 315.549 156.29 315.435 154.247C315.322 152.204 315.605 149.48 315.605 149.48L319.464 148.572L320.259 149.594Z" fill="#233862"/>
<path d="M291.262 160.523C291.194 160.558 291.077 160.589 290.917 160.617H278.074C278.174 160.168 278.569 159.245 280.14 158.991C282.174 158.66 285.699 157.479 286.485 154.878C286.509 154.794 286.532 154.709 286.552 154.622C287.176 151.841 291.716 155.473 291.716 155.473C291.716 155.473 291.729 155.583 291.749 155.773C291.854 156.793 292.124 160.092 291.262 160.523Z" fill="#233862"/>
<path d="M280.68 86.153C280.68 86.153 281.369 94.755 282.18 105.095C283.281 119.141 284.605 136.394 284.736 139.663C284.963 145.338 285.872 154.417 285.872 154.417C285.872 154.417 288.027 156.574 292.341 155.665C292.341 155.665 296.185 142.705 297.283 128.993C297.3 128.768 297.317 128.541 297.334 128.315C298.355 114.356 299.944 84.9614 299.944 84.9614L280.68 86.153Z" fill="#2B478B"/>
<path d="M280.68 86.153C280.68 86.153 281.369 94.755 282.18 105.095L297.283 128.993C297.3 128.768 297.317 128.541 297.334 128.315C298.355 114.356 299.944 84.9614 299.944 84.9614L280.68 86.153Z" fill="#233862"/>
<path d="M283.828 87.1745C283.828 87.1745 296.255 118.327 304.427 132.968C312.598 147.608 315.151 151.693 315.151 151.693C315.151 151.693 319.833 149.821 320.258 148.544C320.258 148.544 317.134 120.28 311.661 113.391C308.57 109.497 304.937 97.8142 304.767 93.7284C304.597 89.6427 303.661 81.5566 303.661 81.5566L283.828 87.1745Z" fill="#2B478B"/>
<path d="M290.202 39.087C289.649 35.8247 289.633 33.891 289.633 33.891L295.938 28.8096C295.703 35.7969 300.181 39.1566 300.181 39.1566C300.181 39.1566 291.778 43.2926 286.922 41.7607C286.922 41.7607 288.117 40.2322 290.202 39.087Z" fill="#9C5F33"/>
<path d="M288.147 33.7756C288.147 33.7756 296.169 35.1083 296.921 30.1002C297.674 25.0921 299.217 21.8914 294.127 20.8288C289.038 19.7662 287.753 21.5272 287.095 23.1378C286.437 24.7482 286.08 33.2999 288.147 33.7756Z" fill="#AB7041"/>
<path d="M280.144 86.8695C280.29 86.9909 280.46 87.064 280.654 87.064C282.478 87.0393 287.796 88.0521 292.295 87.5901C296.089 87.226 299.446 86.1023 303.052 84.4861C303.53 84.2714 304.632 83.6833 304.608 83.1481C304.592 82.5621 304.533 81.7121 304.46 80.6418C304.205 76.9202 303.76 70.5192 304.194 63.1344C304.272 61.7591 304.313 60.3953 304.318 59.0524C304.355 49.0436 302.37 40.2403 298.382 37.2607C298.042 37.0167 295.95 38.0389 294.029 38.9865C292.254 39.8624 290.478 39.9591 288.801 39.6196L287.124 41.1025C285.081 42.9991 282.843 45.5772 281.871 49.4919C281.043 52.8233 280.558 58.8305 280.29 65.0557C280.169 67.8766 280.071 70.7224 280.046 73.4218V73.5184C280.022 73.7858 280.022 74.0784 280.022 74.3459C279.925 81.276 280.022 86.7716 280.144 86.8695Z" fill="#EE9849"/>
<path d="M304.461 80.6417C304.205 76.9201 303.76 70.5191 304.194 63.1342C304.272 61.759 304.313 60.3951 304.318 59.0522C302.657 55.0223 301.299 52.0999 301.299 52.0999H297.112C297.112 52.0999 294.042 73.0687 304.461 80.6417Z" fill="#E58638"/>
<path d="M331.9 99.3276L330.785 91.4985C330.452 89.1658 328.272 87.5288 325.939 87.8614L319.801 88.736L319.563 87.0666C319.453 86.2948 318.735 85.7563 317.964 85.8663L312.63 86.6264C312.257 86.6794 311.926 86.8756 311.699 87.1782C311.472 87.4809 311.376 87.853 311.429 88.226L311.667 89.8952L308.112 90.4018C307.97 90.4219 307.832 90.449 307.696 90.4824L305.745 90.7604C303.42 91.0918 301.79 93.2645 302.121 95.5886L303.224 103.328C303.555 105.652 305.727 107.283 308.052 106.951L309.51 106.744C309.813 106.767 310.123 106.759 310.436 106.714L328.263 104.174C330.596 103.841 332.233 101.661 331.9 99.3276ZM312.755 87.5037L318.089 86.7436C318.143 86.736 318.196 86.7367 318.247 86.7452C318.469 86.7809 318.652 86.9576 318.686 87.1917L318.924 88.8611L312.545 89.7699L312.307 88.1006C312.266 87.8126 312.467 87.5447 312.755 87.5037Z" fill="#233862"/>
<path d="M312.607 81.9455L313.402 83.3155C313.402 83.3155 311.845 86.6134 315.54 87.8454C315.54 87.8454 317.129 88.2466 317.265 87.1447C317.401 86.0428 317.166 86.4761 317.397 84.9204C317.628 83.3649 317.02 81.9793 315.873 81.609L314.967 80.7422L312.607 81.9455Z" fill="#AB7041"/>
<path d="M314.714 82.3199C313.207 82.6137 311.572 82.4948 311.572 82.4948C311.572 82.4948 307.095 68.6659 306.519 67.4028C305.943 66.1395 293.223 51.188 293.223 51.188L298.522 37.9263C298.522 37.9263 312.281 60.9084 313.678 64.1378C315.986 69.4741 316.787 81.4384 316.787 81.4384C316.787 81.4384 315.899 82.0889 314.714 82.3199Z" fill="#EE9849"/>
<path d="M296.928 29.6182C296.928 29.6182 296.105 29.4806 296.238 28.3468C296.37 27.213 296.369 25.7311 295.447 26.0073C294.525 26.2835 294.479 27.0215 294.1 26.5905C293.722 26.1596 293.715 24.3438 290.972 24.2173C288.229 24.0909 287.115 25.0455 285.839 24.4847C284.564 23.924 284.496 21.9935 284.496 21.9935C284.496 21.9935 284.859 22.6828 285.407 22.9019C285.407 22.9019 283.279 19.9915 285.742 17.9956C288.206 15.9999 290.718 17.3065 292.144 17.3928C295.285 17.5829 297.315 17.7714 298.341 19.8356C299.367 21.8999 298.944 27.6314 296.928 29.6182Z" fill="#2B478B"/>
<path d="M261.482 50.3978L258.219 43.7779C258.156 43.6497 257.999 43.5965 257.871 43.6597L256.055 44.5549C255.927 44.6182 255.874 44.7749 255.937 44.9031L259.2 51.5229C259.263 51.651 259.42 51.7043 259.548 51.6412L261.364 50.7458C261.492 50.6828 261.545 50.5261 261.482 50.3978Z" fill="#2B478B"/>
<path d="M259.791 51.3006L256.473 44.5694C256.425 44.4718 256.306 44.4315 256.208 44.4795L255.144 45.0043C255.046 45.0525 255.005 45.1717 255.053 45.2694L258.371 52.0004C258.42 52.0981 258.539 52.1386 258.637 52.0905L259.701 51.5657C259.799 51.5176 259.839 51.3983 259.791 51.3006Z" fill="#233862"/>
<path d="M246.887 112.338C232.725 115.779 221.398 132.463 214.962 144.32C214.181 143.477 213.47 142.49 212.784 141.416C215.499 135.27 220.766 122.066 215.666 122.506C211.229 122.89 210.807 132.069 211.016 138.455C207.411 132.201 203.338 124.953 191.793 125.414C172.69 126.178 166.797 146.045 153.53 145.66C140.263 145.275 99.7357 140.206 91.7559 160.609H231.418C230.962 159.356 230.16 154.303 226.427 150.637C227.111 150.404 227.82 150.168 228.557 149.928C240.392 146.074 235.968 142.086 235.968 142.086C230.417 142.086 225.339 144.579 221.288 147.508C220.712 147.315 220.104 147.15 219.458 147.019C218.732 146.87 218.066 146.623 217.448 146.294C224.453 138.244 234.55 127.982 242.448 125.388C247.852 123.614 250.562 121.183 251.851 118.863C253.756 115.434 250.699 111.412 246.887 112.338Z" fill="#A8D29F"/>
<path d="M83.0297 40.1572C72.8565 40.1572 64.6094 48.4042 64.6094 58.5774C64.6094 68.7507 83.0297 91.368 83.0297 91.368C83.0297 91.368 101.45 68.7507 101.45 58.5774C101.45 48.4042 93.2028 40.1572 83.0297 40.1572ZM83.0297 67.0005C78.2745 67.0005 74.4196 63.1455 74.4196 58.3903C74.4196 53.6351 78.2745 49.7804 83.0297 49.7804C87.7847 49.7804 91.6397 53.6351 91.6397 58.3903C91.6396 63.1455 87.7847 67.0005 83.0297 67.0005Z" fill="#C94C43"/>
<path d="M46.5569 139.277C42.6001 139.277 34.8887 144.133 34.8887 150.123C34.8887 156.113 38.0963 160.97 42.0531 160.97C42.6028 160.97 46.557 160.97 46.557 160.97C50.5138 160.97 53.7214 156.113 53.7214 150.123C53.7214 144.133 50.5137 139.277 46.5569 139.277Z" fill="#661717"/>
<path d="M131.474 152.29H92.2603C92.4521 151.164 92.5481 149.995 92.5481 148.784C92.5481 139.912 87.2223 132.716 80.6606 132.716C74.0991 132.716 68.785 139.912 68.785 148.784C68.785 149.995 68.881 151.164 69.073 152.29H52.3631C52.3631 152.29 47.1692 139.377 52.3631 134.914C57.5572 130.463 86.5503 127.408 86.5503 127.408C86.5503 127.408 97.5501 113.087 104.28 108.636C105.431 107.876 107.531 107.327 110.241 106.919C124.312 108.749 124.828 123.535 132.865 125.999C141.262 128.576 131.474 152.29 131.474 152.29Z" fill="#661717"/>
<path d="M94.1224 147.249C94.1224 153.774 90.7567 160.97 90.7567 160.97C90.7567 160.97 85.7545 160.97 85.0593 160.97C80.0539 160.97 75.9961 154.827 75.9961 147.249C75.9961 139.671 85.7512 133.528 90.7567 133.528C95.7623 133.528 94.1224 139.671 94.1224 147.249Z" fill="#631818"/>
<path d="M90.7565 160.97C95.7619 160.97 99.8196 154.827 99.8196 147.249C99.8196 139.671 95.7619 133.528 90.7565 133.528C85.751 133.528 81.6934 139.671 81.6934 147.249C81.6934 154.827 85.751 160.97 90.7565 160.97Z" fill="#822121"/>
<path d="M97.47 147.249C97.47 152.957 94.4135 157.584 90.6431 157.584C86.8729 157.584 83.8164 152.957 83.8164 147.249C83.8164 141.541 86.8729 136.913 90.6431 136.913C94.4135 136.913 97.47 141.541 97.47 147.249Z" fill="#661717"/>
<path d="M142.625 152.29H103.411C103.603 151.164 103.699 149.995 103.699 148.784C103.699 139.912 98.3736 132.717 91.8119 132.717C85.2503 132.717 79.9363 139.912 79.9363 148.784C79.9363 149.995 80.0323 151.164 80.2243 152.29H20.8704C20.8704 152.29 15.6644 139.377 20.8704 134.914C26.0645 130.463 56.2623 126.126 56.2623 126.126C56.2623 126.126 70.0278 115.912 76.7692 111.462C83.5107 106.998 119.425 106.75 119.425 106.75C120.109 106.778 120.769 106.834 121.393 106.919C135.463 108.749 135.979 123.535 144.016 125.999C152.413 128.576 142.625 152.29 142.625 152.29Z" fill="#C94C43"/>
<path d="M142.624 152.29H103.411C103.603 151.164 103.699 149.995 103.699 148.784C103.699 139.912 98.3727 132.716 91.8111 132.716C85.2494 132.716 79.9355 139.912 79.9355 148.784C79.9355 149.995 80.0315 151.164 80.2235 152.29H63.5135C63.5135 152.29 58.3195 139.377 63.5135 134.914C68.7075 130.463 97.7007 127.408 97.7007 127.408C97.7007 127.408 108.701 113.087 115.43 108.636C116.582 107.876 118.681 107.327 121.392 106.919C135.463 108.749 135.979 123.535 144.015 125.999C152.412 128.576 142.624 152.29 142.624 152.29Z" fill="#A8302D"/>
<path d="M103.51 125.999C103.51 125.999 114.913 108.79 121.99 109.761C133.536 111.345 137.286 123.856 137.286 123.856C137.286 123.856 127.201 124.503 103.51 125.999Z" fill="#A2C2DD"/>
<path d="M112.429 109.055C112.429 109.055 112.4 109.083 112.344 109.126C111.429 109.844 103.121 116.448 97.333 124.01L61.2129 124.63C62.2408 123.813 63.4942 122.827 64.846 121.757C70.2675 117.504 77.3648 112.054 78.7026 111.618C80.2515 111.125 86.194 110.153 91.7564 109.717C92.2211 109.675 92.6999 109.646 93.1787 109.604C98.3186 109.252 103.627 109.126 107.359 109.083H107.711C110.57 109.041 112.429 109.055 112.429 109.055Z" fill="#C4D9ED"/>
<path d="M58.1729 140.33V140.781C58.1729 142.274 56.9805 143.485 55.5109 143.485H41.9373C40.4816 143.485 39.2754 142.274 39.2754 140.781V140.33C39.2754 138.838 40.4816 137.627 41.9373 137.627H55.5108C56.9805 137.627 58.1729 138.838 58.1729 140.33Z" fill="#A2C2DD"/>
<path d="M58.1731 140.33V140.781C58.1731 142.274 56.9806 143.485 55.5111 143.485H43.4765C42.0069 143.485 40.8145 142.274 40.8145 140.781V140.33C40.8145 138.838 42.0069 137.627 43.4765 137.627H55.5109C56.9806 137.627 58.1731 138.838 58.1731 140.33Z" fill="#C4D9ED"/>
<path d="M30.8068 140.33V140.781C30.8068 142.274 30.1433 143.485 29.3257 143.485H21.7739C20.964 143.485 20.293 142.274 20.293 140.781V140.33C20.293 138.838 20.9642 137.627 21.7739 137.627H29.3257C30.1433 137.627 30.8068 138.838 30.8068 140.33Z" fill="#A2C2DD"/>
<path d="M30.806 140.33V140.781C30.806 142.274 30.1426 143.485 29.3249 143.485H22.6294C21.8117 143.485 21.1484 142.274 21.1484 140.781V140.33C21.1484 138.838 21.8117 137.627 22.6294 137.627H29.3249C30.1426 137.627 30.806 138.838 30.806 140.33Z" fill="#C4D9ED"/>
<path d="M112.344 109.125C111.429 109.843 103.121 116.448 97.333 124.01L61.2129 124.629C62.2408 123.813 63.4942 122.827 64.846 121.757C73.0417 119.701 86.2647 115.645 93.1789 109.604C98.3187 109.252 103.628 109.125 107.359 109.083H107.711C109.331 109.097 110.88 109.111 112.344 109.125Z" fill="#A2C2DD"/>
<path d="M193.702 160.604H121.369C119.102 160.604 117.246 158.748 117.246 156.48V11.8311C117.246 9.56326 119.102 7.70776 121.369 7.70776H193.702C195.97 7.70776 197.825 9.56326 197.825 11.8311V156.48C197.825 158.748 195.97 160.604 193.702 160.604Z" fill="#D3671E"/>
<path d="M201.513 160.604H129.18C126.912 160.604 125.057 158.748 125.057 156.48V11.8311C125.057 9.56326 126.912 7.70776 129.18 7.70776H201.513C203.78 7.70776 205.636 9.56326 205.636 11.8311V156.48C205.636 158.748 203.78 160.604 201.513 160.604Z" fill="#F99746"/>
<path opacity="0.4" d="M177.156 13.4951H156.21C155.761 13.4951 155.395 13.8619 155.395 14.3102C155.395 14.7583 155.761 15.1251 156.21 15.1251H177.156C177.605 15.1251 177.971 14.7583 177.971 14.3102C177.971 13.8619 177.604 13.4951 177.156 13.4951Z" fill="#D3671E"/>
<path opacity="0.4" d="M152.489 13.4951C152.04 13.4951 151.674 13.8619 151.674 14.3102C151.674 14.7583 152.04 15.1251 152.489 15.1251C152.937 15.1251 153.304 14.7583 153.304 14.3102C153.304 13.8619 152.937 13.4951 152.489 13.4951Z" fill="#D3671E"/>
<path opacity="0.4" d="M161.088 152.156C161.088 149.253 163.441 146.899 166.344 146.899C169.247 146.899 171.6 149.253 171.6 152.156C171.6 155.059 169.247 157.412 166.344 157.412C163.441 157.412 161.088 155.059 161.088 152.156Z" fill="#D86713"/>
<path d="M198.758 19.8318H131.764V143.5H198.758V19.8318Z" fill="#D5E7F7"/>
<path d="M198.758 129.153H131.764V143.509H198.758V129.153Z" fill="#D5E7F7"/>
<path d="M200.759 104.791L186.851 81.9991C189.961 79.8671 191.98 76.9516 192.864 73.3078C195.421 62.7733 187.511 49.2333 184.881 45.1229C186.644 43.4125 187.741 41.0201 187.741 38.376C187.741 33.1897 183.521 28.9702 178.335 28.9702C173.149 28.9702 168.929 33.1897 168.929 38.376C168.929 39.3444 169.077 40.279 169.35 41.1589C159.232 47.0219 148.31 53.1899 144.45 55.1142L132.878 35.8081C132.324 34.8839 131.126 34.5838 130.202 35.1376C129.278 35.6915 128.978 36.8896 129.532 37.8138L146.871 66.7425C148.791 69.9457 152.87 71.0677 156.158 69.2967L167.191 63.3539C168.758 62.5102 170.711 63.0388 171.638 64.5578L181.422 80.5914C161.743 91.022 133.474 105.899 131.295 106.748C130.315 107.042 129.721 108.054 129.959 109.063C130.171 109.961 130.972 110.567 131.856 110.567C132.004 110.567 132.155 110.55 132.305 110.514C132.801 110.397 133.55 110.221 159.522 96.5645C169.587 91.2723 179.629 85.9559 183.457 83.9274L197.429 106.824C197.796 107.426 198.438 107.759 199.096 107.759C199.442 107.758 199.792 107.666 200.11 107.473C201.03 106.911 201.32 105.711 200.759 104.791ZM178.335 32.8715C181.37 32.8715 183.84 35.3408 183.84 38.376C183.84 41.4113 181.37 43.8806 178.335 43.8806C175.3 43.8806 172.83 41.4113 172.83 38.376C172.83 35.3408 175.3 32.8715 178.335 32.8715ZM165.341 59.9192L154.308 65.8619C152.86 66.6419 151.063 66.1478 150.217 64.7368L146.457 58.4633C148.423 57.4731 152.139 55.4707 159.415 51.3472C164.268 48.5967 169.021 45.8549 171.256 44.5621C172.981 46.5342 175.515 47.7819 178.335 47.7819C179.474 47.7819 180.566 47.5784 181.577 47.2059C182.552 48.7368 184.381 51.7776 186.026 55.4508C188.145 60.1809 190.393 66.9598 189.072 72.3932C188.432 75.0256 187.033 77.0902 184.815 78.6633L174.968 62.5261C172.962 59.2372 168.733 58.0925 165.341 59.9192Z" fill="#F99746"/>
<path d="M184.465 35.3631C184.264 35.3631 184.069 35.2571 183.964 35.069C183.809 34.7924 183.908 34.4428 184.185 34.2884L199.676 25.6347C199.952 25.4802 200.302 25.5791 200.457 25.8558C200.611 26.1324 200.512 26.482 200.236 26.6365L184.744 35.2901C184.656 35.3397 184.56 35.3631 184.465 35.3631Z" fill="#F99746"/>
<path d="M174.376 32.791C174.192 32.791 174.01 32.7022 173.9 32.5376L168.233 24.123C168.056 23.8602 168.125 23.5036 168.388 23.3267C168.651 23.1497 169.007 23.2193 169.184 23.482L174.851 31.8967C175.028 32.1595 174.959 32.516 174.696 32.693C174.598 32.7593 174.486 32.791 174.376 32.791Z" fill="#F99746"/>
<path d="M172.903 130.283C172.71 130.283 172.521 130.185 172.413 130.008L153.041 98.3413C152.876 98.0709 152.961 97.7178 153.231 97.5523C153.502 97.3871 153.855 97.4721 154.02 97.7424L173.392 129.41C173.557 129.68 173.472 130.033 173.202 130.198C173.108 130.255 173.005 130.283 172.903 130.283Z" fill="#F99746"/>
<path d="M178.336 41.0951C179.838 41.0951 181.055 39.8778 181.055 38.3761C181.055 36.8744 179.838 35.657 178.336 35.657C176.835 35.657 175.617 36.8744 175.617 38.3761C175.617 39.8778 176.835 41.0951 178.336 41.0951Z" fill="#F99746"/>
<path d="M165.149 129.005L156.503 114.835C154.243 111.13 149.499 109.808 145.648 111.81L131.857 118.979V129.21L165.149 129.005Z" fill="#C4D9ED"/>
<path d="M131.858 99.7654C131.78 99.0742 158.835 85.1093 168.528 80.1295C170.348 79.1945 170.96 76.8913 169.844 75.1763L169.323 74.3763C168.623 73.3005 167.226 72.9233 166.08 73.5009L153.037 80.0726C150.464 81.3691 147.327 80.5032 145.783 78.07L131.764 54.8621L131.858 99.7654Z" fill="#C4D9ED"/>
<path d="M138.868 31.7005L145.342 42.759C146.671 45.0286 149.57 45.8187 151.867 44.5366L158.683 40.7305C160.084 39.9487 160.999 38.523 161.141 36.9256C161.281 35.3642 161.657 33.3174 162.622 31.575C163.46 30.0629 163.404 28.2137 162.501 26.7396L162.499 26.7368C161.621 25.3027 160.061 24.4282 158.379 24.4282H143.038C139.306 24.4284 136.983 28.4796 138.868 31.7005Z" fill="#C4D9ED"/>
<path d="M198.758 36.0603V62.6451C197.244 57.0812 194.593 52.0703 192.926 49.2466C192.1 47.8478 191.991 46.1519 192.583 44.6397C193.144 43.2054 193.42 41.7196 193.554 40.4929C193.741 38.7602 194.937 37.3031 196.594 36.7637L198.758 36.0603Z" fill="#C4D9ED"/>
<path d="M196.255 81.5489C197.36 80.2249 198.179 78.7952 198.759 77.2942V92.2179L195.715 85.8428C195.04 84.429 195.252 82.7515 196.255 81.5489Z" fill="#C4D9ED"/>
<path d="M198.758 117.244V129.21H184.571L169.469 106.021C167.53 103.044 168.514 99.0485 171.614 97.3124L175.867 94.9292C179.568 92.8559 184.243 94.0526 186.493 97.6475L198.758 117.244Z" fill="#C4D9ED"/>
<path d="M153.793 58.2137L167.965 50.5733C168.663 50.1968 169.495 50.1619 170.223 50.4783C172.045 51.2706 175.732 52.6949 178.657 52.6794C179.653 52.6742 180.562 53.2401 180.997 54.1355C182.058 56.3187 183.89 60.3701 184.889 64.2055C185.609 66.9736 181.955 68.6824 180.286 66.3596L173.929 57.5148C173.225 56.5358 171.938 56.1733 170.827 56.6408L156.022 62.8719C154.811 63.3814 153.411 62.9019 152.767 61.7578C152.057 60.4974 152.519 58.9 153.793 58.2137Z" fill="#C4D9ED"/>
<path d="M182.634 132.763H148.059C147.659 132.763 147.332 133.09 147.332 133.49C147.332 133.889 147.659 134.216 148.059 134.216H182.634C183.034 134.216 183.361 133.889 183.361 133.49C183.361 133.09 183.034 132.763 182.634 132.763Z" fill="#699FF0"/>
<path d="M182.634 135.947H148.059C147.659 135.947 147.332 136.274 147.332 136.673C147.332 137.073 147.659 137.4 148.059 137.4H182.634C183.034 137.4 183.361 137.073 183.361 136.673C183.361 136.274 183.034 135.947 182.634 135.947Z" fill="#699FF0"/>
<path d="M138.743 130.696C137.035 130.696 135.65 132.081 135.65 133.789C135.65 135.497 138.743 139.294 138.743 139.294C138.743 139.294 141.836 135.497 141.836 133.789C141.836 132.081 140.451 130.696 138.743 130.696ZM138.743 135.203C137.945 135.203 137.298 134.555 137.298 133.757C137.298 132.959 137.945 132.311 138.743 132.311C139.542 132.311 140.189 132.959 140.189 133.757C140.189 134.556 139.541 135.203 138.743 135.203Z" fill="#D3671E"/>
<path d="M161.638 72.52C159.93 72.52 158.545 73.9047 158.545 75.6127C158.545 77.3209 161.638 81.1184 161.638 81.1184C161.638 81.1184 164.73 77.321 164.73 75.6127C164.731 73.9047 163.346 72.52 161.638 72.52ZM161.638 77.0268C160.839 77.0268 160.192 76.3797 160.192 75.5813C160.192 74.7828 160.839 74.1355 161.638 74.1355C162.436 74.1355 163.083 74.7828 163.083 75.5813C163.083 76.3797 162.436 77.0268 161.638 77.0268Z" fill="#D3671E"/>
<path d="M164.731 70.4123C164.649 70.4123 164.567 70.3833 164.501 70.3243C164.36 70.1975 164.348 69.9798 164.475 69.8381C164.588 69.7114 164.702 69.5853 164.816 69.4595C164.943 69.3185 165.161 69.3075 165.302 69.4351C165.443 69.5627 165.454 69.7803 165.326 69.9213C165.213 70.0464 165.1 70.1716 164.987 70.2979C164.919 70.3737 164.825 70.4123 164.731 70.4123ZM166.242 68.7575C166.158 68.7575 166.074 68.7271 166.007 68.6654C165.868 68.5358 165.86 68.3182 165.99 68.1789C166.385 67.7545 166.786 67.3294 167.182 66.9155C167.314 66.7784 167.532 66.7736 167.669 66.9053C167.806 67.0367 167.811 67.2545 167.679 67.3919C167.285 67.8034 166.886 68.2258 166.494 68.6478C166.426 68.7208 166.334 68.7575 166.242 68.7575ZM168.639 66.2566C168.551 66.2566 168.464 66.2234 168.397 66.1572C168.262 66.0237 168.26 65.8059 168.394 65.6704C168.801 65.2577 169.215 64.845 169.624 64.4435C169.76 64.3104 169.978 64.3124 170.111 64.4479C170.244 64.5837 170.242 64.8015 170.106 64.9348C169.7 65.3338 169.289 65.7441 168.884 66.1541C168.816 66.2223 168.727 66.2566 168.639 66.2566ZM171.111 63.8297C171.02 63.8297 170.929 63.7938 170.861 63.7227C170.73 63.585 170.736 63.367 170.873 63.236C171.294 62.8362 171.721 62.4367 172.142 62.0486C172.282 61.9196 172.5 61.9286 172.628 62.0685C172.757 62.2083 172.748 62.4262 172.608 62.5549C172.19 62.9406 171.765 63.3375 171.348 63.7347C171.281 63.7982 171.196 63.8297 171.111 63.8297ZM173.659 61.4832C173.564 61.4832 173.47 61.4444 173.402 61.3679C173.275 61.226 173.288 61.0084 173.43 60.8818C173.862 60.4967 174.302 60.1117 174.738 59.7369C174.882 59.6129 175.099 59.6291 175.223 59.7732C175.347 59.9174 175.331 60.1347 175.187 60.2586C174.754 60.6307 174.317 61.0134 173.888 61.3959C173.822 61.4545 173.741 61.4832 173.659 61.4832ZM176.285 59.2235C176.186 59.2235 176.088 59.1813 176.02 59.0993C175.899 58.953 175.919 58.736 176.065 58.6145C176.51 58.2448 176.963 57.875 177.411 57.5156C177.56 57.3967 177.776 57.4207 177.895 57.5689C178.014 57.7172 177.99 57.9338 177.842 58.0528C177.397 58.4097 176.947 58.777 176.505 59.1441C176.44 59.1975 176.363 59.2235 176.285 59.2235ZM178.988 57.0575C178.885 57.0575 178.783 57.0115 178.716 56.9235C178.599 56.7732 178.627 56.557 178.778 56.4407C179.237 56.0864 179.703 55.7331 180.163 55.3912C180.316 55.2778 180.532 55.3095 180.645 55.4622C180.759 55.6149 180.727 55.8305 180.574 55.944C180.117 56.2835 179.654 56.6341 179.198 56.9858C179.136 57.034 179.062 57.0575 178.988 57.0575ZM181.769 54.992C181.662 54.992 181.556 54.9419 181.489 54.8478C181.378 54.6932 181.414 54.4782 181.569 54.3677C182.04 54.0316 182.519 53.6962 182.994 53.3711C183.151 53.2639 183.365 53.3036 183.472 53.4605C183.58 53.6172 183.54 53.8314 183.383 53.9389C182.912 54.2615 182.436 54.5942 181.969 54.9279C181.908 54.9712 181.838 54.992 181.769 54.992ZM184.627 53.0344C184.515 53.0344 184.405 52.9798 184.339 52.8791C184.235 52.7201 184.279 52.5068 184.438 52.4024C184.921 52.0849 185.414 51.7684 185.901 51.4623C186.062 51.3613 186.275 51.4097 186.376 51.5707C186.477 51.7315 186.428 51.9441 186.267 52.0454C185.784 52.349 185.295 52.6627 184.816 52.9777C184.758 53.0161 184.692 53.0344 184.627 53.0344ZM187.56 51.1918C187.444 51.1918 187.33 51.1322 187.265 51.0246C187.167 50.8616 187.22 50.6502 187.383 50.5524C187.879 50.2546 188.384 49.9587 188.883 49.6728C189.048 49.5784 189.259 49.6357 189.353 49.8006C189.448 49.9657 189.391 50.1759 189.225 50.2704C188.73 50.5537 188.229 50.8473 187.737 51.1426C187.682 51.1759 187.621 51.1918 187.56 51.1918ZM190.567 49.4716C190.445 49.4716 190.327 49.4065 190.264 49.2918C190.173 49.1249 190.235 48.9158 190.402 48.825C190.91 48.5483 191.427 48.2739 191.939 48.0096C192.108 47.9221 192.315 47.9885 192.402 48.1573C192.49 48.3261 192.424 48.5338 192.255 48.6211C191.747 48.8832 191.235 49.1553 190.731 49.4297C190.679 49.458 190.623 49.4716 190.567 49.4716ZM193.644 47.8811C193.517 47.8811 193.395 47.8102 193.335 47.6882C193.251 47.5174 193.322 47.3112 193.493 47.2276C194.012 46.9735 194.54 46.7219 195.064 46.4798C195.236 46.4003 195.441 46.4752 195.521 46.6478C195.6 46.8203 195.525 47.0249 195.353 47.1047C194.834 47.3446 194.31 47.5941 193.796 47.8459C193.747 47.8697 193.695 47.8811 193.644 47.8811ZM196.788 46.427C196.656 46.427 196.529 46.3497 196.473 46.22C196.397 46.0458 196.476 45.843 196.651 45.7671C197.182 45.5358 197.721 45.3082 198.254 45.0903C198.43 45.0184 198.631 45.1028 198.703 45.2787C198.775 45.4545 198.69 45.6556 198.514 45.7275C197.987 45.9434 197.452 46.1691 196.926 46.3984C196.881 46.4179 196.834 46.427 196.788 46.427ZM252.435 45.4949C252.384 45.4949 252.333 45.4838 252.285 45.4602C252.279 45.4575 251.727 45.1907 250.712 44.7858C250.535 44.7155 250.449 44.5153 250.52 44.3387C250.59 44.1622 250.79 44.076 250.967 44.1465C252.009 44.5617 252.563 44.8296 252.586 44.8409C252.757 44.924 252.828 45.1297 252.745 45.3008C252.685 45.4235 252.563 45.4949 252.435 45.4949ZM199.995 45.116C199.856 45.116 199.726 45.0317 199.673 44.8946C199.605 44.7171 199.694 44.518 199.872 44.4502C200.413 44.2433 200.962 44.0406 201.504 43.8474C201.683 43.7836 201.88 43.8772 201.944 44.0562C202.008 44.2353 201.914 44.4321 201.735 44.4961C201.198 44.6875 200.654 44.8884 200.118 45.0932C200.077 45.1088 200.036 45.116 199.995 45.116ZM249.217 44.1984C249.178 44.1984 249.139 44.192 249.101 44.1784C248.573 43.9895 248.024 43.8029 247.47 43.6235C247.289 43.5649 247.19 43.3708 247.248 43.1898C247.307 43.009 247.5 42.9095 247.682 42.9683C248.243 43.1498 248.798 43.3389 249.333 43.5299C249.512 43.594 249.605 43.791 249.541 43.9701C249.49 44.1108 249.358 44.1984 249.217 44.1984ZM203.258 43.954C203.114 43.954 202.979 43.8623 202.931 43.7175C202.872 43.5371 202.97 43.3425 203.15 43.283C203.7 43.1016 204.258 42.9245 204.809 42.7569C204.991 42.7017 205.183 42.8041 205.239 42.986C205.294 43.168 205.191 43.3603 205.009 43.4156C204.463 43.5816 203.911 43.7569 203.366 43.9366C203.33 43.9485 203.294 43.954 203.258 43.954ZM245.919 43.1298C245.887 43.1298 245.854 43.1253 245.822 43.1158C245.276 42.9558 244.717 42.8 244.161 42.6529C243.977 42.6043 243.868 42.4158 243.916 42.2321C243.965 42.0483 244.153 41.9386 244.337 41.9871C244.899 42.1359 245.464 42.2934 246.016 42.4551C246.198 42.5087 246.303 42.6999 246.249 42.8823C246.205 43.0324 246.068 43.1298 245.919 43.1298ZM206.572 42.9459C206.422 42.9459 206.283 42.8462 206.241 42.6942C206.19 42.511 206.297 42.3212 206.48 42.2702C207.036 42.1154 207.602 41.965 208.162 41.8234C208.347 41.7763 208.534 41.8882 208.58 42.0727C208.627 42.2569 208.515 42.4441 208.331 42.4905C207.776 42.6311 207.216 42.78 206.665 42.9334C206.634 42.9419 206.603 42.9459 206.572 42.9459ZM242.568 42.242C242.542 42.242 242.515 42.239 242.488 42.2327C241.932 42.1006 241.366 41.9734 240.806 41.8547C240.62 41.8152 240.501 41.6327 240.54 41.4467C240.58 41.2607 240.761 41.1414 240.948 41.1811C241.514 41.3009 242.086 41.4294 242.648 41.5628C242.833 41.6069 242.947 41.7924 242.903 41.9774C242.865 42.1355 242.724 42.242 242.568 42.242ZM209.931 42.0962C209.774 42.0962 209.632 41.9881 209.595 41.8284C209.553 41.643 209.669 41.4587 209.855 41.4165C210.418 41.2881 210.991 41.1648 211.556 41.0503C211.742 41.0128 211.924 41.133 211.962 41.3194C212 41.5057 211.879 41.6874 211.693 41.7252C211.133 41.8385 210.566 41.9605 210.008 42.0877C209.982 42.0935 209.956 42.0962 209.931 42.0962ZM239.178 41.5241C239.157 41.5241 239.135 41.5222 239.114 41.5183C238.553 41.4136 237.981 41.3144 237.415 41.2229C237.227 41.1927 237.099 41.0158 237.13 40.8282C237.16 40.6406 237.336 40.5127 237.525 40.5432C238.096 40.6356 238.674 40.7358 239.24 40.8415C239.427 40.8762 239.55 41.056 239.516 41.2431C239.485 41.4086 239.34 41.5241 239.178 41.5241ZM213.326 41.4086C213.162 41.4086 213.017 41.2914 212.988 41.1246C212.954 40.9375 213.079 40.7587 213.266 40.7255C213.836 40.6243 214.413 40.5288 214.983 40.4418C215.171 40.4127 215.347 40.542 215.376 40.7299C215.405 40.9179 215.276 41.0936 215.087 41.1223C214.523 41.2086 213.95 41.3031 213.387 41.4034C213.366 41.4069 213.346 41.4086 213.326 41.4086ZM235.756 40.9718C235.741 40.9718 235.725 40.9706 235.709 40.9686C235.142 40.891 234.566 40.8192 233.998 40.7551C233.809 40.7339 233.673 40.5636 233.694 40.3746C233.715 40.1857 233.886 40.0495 234.074 40.071C234.648 40.1355 235.23 40.2082 235.802 40.2865C235.991 40.3123 236.122 40.4859 236.096 40.6742C236.073 40.8466 235.926 40.9718 235.756 40.9718ZM216.751 40.885C216.58 40.885 216.432 40.7583 216.41 40.5845C216.386 40.396 216.519 40.2234 216.707 40.1993C217.281 40.1258 217.863 40.0582 218.436 39.9985C218.627 39.9791 218.795 40.1164 218.814 40.3054C218.834 40.4945 218.697 40.6639 218.508 40.6834C217.939 40.7423 217.363 40.8092 216.795 40.8822C216.78 40.884 216.765 40.885 216.751 40.885ZM232.312 40.5837C232.302 40.5837 232.292 40.5832 232.282 40.5824C231.711 40.5317 231.132 40.4876 230.562 40.4507C230.372 40.4384 230.229 40.2747 230.241 40.0849C230.253 39.8953 230.417 39.7515 230.606 39.7637C231.182 39.8008 231.766 39.8456 232.342 39.8964C232.532 39.9133 232.672 40.0804 232.655 40.2698C232.639 40.4487 232.489 40.5837 232.312 40.5837ZM220.197 40.5272C220.019 40.5272 219.869 40.3903 219.854 40.2102C219.839 40.0206 219.981 39.8549 220.17 39.8398C220.746 39.7941 221.331 39.7547 221.907 39.7227C222.097 39.7125 222.259 39.8576 222.27 40.0476C222.28 40.2374 222.135 40.3998 221.945 40.4103C221.374 40.4418 220.796 40.4808 220.225 40.5262C220.216 40.5269 220.206 40.5272 220.197 40.5272ZM228.854 40.3604C228.849 40.3604 228.845 40.3603 228.84 40.36C228.269 40.3367 227.689 40.3201 227.116 40.3106C226.926 40.3075 226.774 40.1508 226.778 39.9606C226.781 39.7725 226.934 39.6222 227.122 39.6222C227.124 39.6222 227.126 39.6222 227.128 39.6223C227.706 39.6319 228.291 39.6487 228.868 39.6721C229.058 39.68 229.205 39.8402 229.198 40.0302C229.19 40.2152 229.038 40.3604 228.854 40.3604ZM223.657 40.3358C223.472 40.3358 223.319 40.1886 223.313 40.0023C223.307 39.8122 223.456 39.6534 223.646 39.6475C224.222 39.6295 224.808 39.6182 225.387 39.614C225.575 39.6129 225.732 39.7655 225.734 39.9558C225.735 40.1459 225.582 40.3011 225.392 40.3026C224.818 40.3067 224.238 40.318 223.668 40.3357C223.664 40.3357 223.66 40.3358 223.657 40.3358Z" fill="#699FF0"/>
<path d="M88.0807 90.7402C87.978 90.7402 87.8763 90.6944 87.8085 90.6068C87.6921 90.4566 87.7194 90.2403 87.8698 90.124C87.89 90.1083 88.3743 89.7337 89.2924 89.0902C89.4482 88.981 89.6626 89.0189 89.7719 89.1745C89.881 89.3302 89.8433 89.5448 89.6877 89.654C88.7849 90.2869 88.2964 90.6644 88.2915 90.6682C88.2286 90.7167 88.1543 90.7402 88.0807 90.7402ZM90.9242 88.7368C90.8131 88.7368 90.7039 88.683 90.6377 88.5835C90.5321 88.4253 90.5751 88.2117 90.7332 88.1061C91.2056 87.7912 91.6969 87.4713 92.1935 87.1545C92.3538 87.0525 92.5665 87.0992 92.6687 87.2598C92.7711 87.4201 92.724 87.6329 92.5636 87.7351C92.0708 88.0493 91.5834 88.3668 91.1148 88.6791C91.0563 88.7182 90.99 88.7368 90.9242 88.7368ZM93.8508 86.8697C93.7349 86.8697 93.622 86.8114 93.557 86.7053C93.4577 86.543 93.5088 86.3311 93.671 86.2319C94.1612 85.9319 94.6636 85.6304 95.1639 85.3361C95.3277 85.2397 95.5387 85.2943 95.635 85.4581C95.7314 85.622 95.6768 85.8329 95.513 85.9293C95.0161 86.2215 94.5172 86.5209 94.0304 86.819C93.9741 86.8533 93.9122 86.8697 93.8508 86.8697ZM96.8411 85.1098C96.7211 85.1098 96.6046 85.0471 96.5413 84.935C96.4476 84.7696 96.5061 84.5596 96.6713 84.4659C97.1721 84.1828 97.6841 83.8986 98.1932 83.6217C98.3602 83.531 98.5691 83.5925 98.66 83.7595C98.7509 83.9265 98.6893 84.1356 98.5222 84.2264C98.0166 84.5016 97.5079 84.7837 97.0104 85.065C96.9569 85.0956 96.8987 85.1098 96.8411 85.1098ZM99.8881 83.4523C99.764 83.4523 99.6442 83.385 99.5828 83.2675C99.4948 83.0989 99.5599 82.891 99.7283 82.8029C100.238 82.5364 100.759 82.2694 101.277 82.0095C101.447 81.9238 101.653 81.9925 101.739 82.1625C101.824 82.3324 101.756 82.5394 101.586 82.6247C101.072 82.8829 100.554 83.1481 100.047 83.4131C99.9964 83.4397 99.9419 83.4523 99.8881 83.4523ZM102.987 81.896C102.859 81.896 102.736 81.8242 102.677 81.7012C102.595 81.53 102.667 81.3242 102.838 81.2416C103.357 80.9915 103.886 80.7421 104.411 80.4997C104.584 80.4202 104.788 80.4954 104.868 80.668C104.947 80.8407 104.872 81.0451 104.7 81.1248C104.178 81.3654 103.652 81.6135 103.136 81.8619C103.088 81.8851 103.037 81.896 102.987 81.896ZM106.136 80.4435C106.003 80.4435 105.878 80.3668 105.821 80.2381C105.744 80.0642 105.823 79.8609 105.997 79.7841C106.524 79.5515 107.061 79.3196 107.594 79.0953C107.769 79.0219 107.971 79.1037 108.045 79.2789C108.118 79.4541 108.036 79.6559 107.861 79.7296C107.332 79.9527 106.798 80.1828 106.274 80.414C106.229 80.4341 106.182 80.4435 106.136 80.4435ZM109.331 79.0975C109.194 79.0975 109.065 79.0157 109.011 78.8813C108.94 78.705 109.026 78.5044 109.202 78.4337C109.737 78.2192 110.282 78.0058 110.823 77.8C111 77.7325 111.199 77.8213 111.267 77.9991C111.335 78.1766 111.245 78.3756 111.068 78.4434C110.531 78.6479 109.99 78.8597 109.459 79.0727C109.417 79.0896 109.374 79.0975 109.331 79.0975ZM112.57 77.863C112.429 77.863 112.297 77.7757 112.246 77.6356C112.182 77.4566 112.275 77.2593 112.454 77.1949C112.996 76.9989 113.548 76.8051 114.095 76.6189C114.275 76.5575 114.47 76.6539 114.532 76.8337C114.593 77.0137 114.497 77.2091 114.317 77.2705C113.775 77.4555 113.226 77.6479 112.687 77.8424C112.649 77.8564 112.609 77.863 112.57 77.863ZM115.852 76.7452C115.706 76.7452 115.571 76.6521 115.524 76.5059C115.466 76.3249 115.566 76.1311 115.747 76.073C116.299 75.8962 116.857 75.723 117.408 75.5579C117.59 75.5031 117.783 75.6067 117.837 75.7887C117.892 75.9709 117.788 76.1628 117.606 76.2174C117.059 76.3814 116.504 76.5533 115.957 76.7288C115.922 76.7399 115.886 76.7452 115.852 76.7452ZM119.172 75.7502C119.021 75.7502 118.883 75.6504 118.84 75.4983C118.789 75.3152 118.896 75.1253 119.079 75.0743C119.638 74.9186 120.203 74.7668 120.76 74.6233C120.944 74.5753 121.131 74.6863 121.179 74.8704C121.226 75.0547 121.116 75.2424 120.932 75.2897C120.379 75.4323 119.818 75.583 119.264 75.7375C119.234 75.7462 119.202 75.7502 119.172 75.7502ZM122.528 74.8845C122.372 74.8845 122.23 74.7779 122.193 74.6194C122.149 74.4344 122.264 74.249 122.449 74.2052C123.012 74.0718 123.583 73.9427 124.146 73.8215C124.332 73.7814 124.515 73.8996 124.555 74.0855C124.595 74.2714 124.476 74.4545 124.291 74.4945C123.733 74.6147 123.166 74.7427 122.607 74.875C122.581 74.8814 122.554 74.8845 122.528 74.8845ZM155.149 74.4229C155.123 74.4229 155.097 74.4199 155.071 74.414C154.515 74.2851 153.948 74.162 153.387 74.048C153.201 74.0102 153.081 73.8284 153.119 73.642C153.156 73.4558 153.338 73.3353 153.525 73.3734C154.091 73.4887 154.664 73.613 155.226 73.7432C155.411 73.7861 155.527 73.971 155.484 74.1563C155.447 74.3154 155.305 74.4229 155.149 74.4229ZM125.916 74.1551C125.754 74.1551 125.61 74.0408 125.578 73.8763C125.542 73.6898 125.664 73.5089 125.85 73.4729C126.42 73.3624 126.996 73.2573 127.562 73.1602C127.75 73.1279 127.928 73.254 127.96 73.4412C127.992 73.6287 127.866 73.8066 127.679 73.8388C127.117 73.935 126.546 74.0395 125.981 74.1488C125.959 74.153 125.937 74.1551 125.916 74.1551ZM151.755 73.733C151.735 73.733 151.715 73.7312 151.695 73.7278C151.132 73.6289 150.56 73.5364 149.994 73.4529C149.806 73.4251 149.676 73.2501 149.704 73.062C149.732 72.8738 149.906 72.7436 150.095 72.7717C150.667 72.8563 151.245 72.9499 151.814 73.0495C152.001 73.0823 152.126 73.2607 152.093 73.4479C152.064 73.6151 151.919 73.733 151.755 73.733ZM129.331 73.5693C129.163 73.5693 129.017 73.4468 128.991 73.2759C128.963 73.0879 129.092 72.9125 129.28 72.8845C129.854 72.799 130.434 72.7191 131.005 72.6467C131.194 72.6231 131.365 72.7566 131.389 72.9451C131.413 73.1337 131.28 73.3059 131.091 73.33C130.526 73.4014 129.951 73.4807 129.382 73.5656C129.365 73.568 129.348 73.5693 129.331 73.5693ZM148.328 73.2259C148.314 73.2259 148.3 73.2252 148.286 73.2234C147.719 73.1549 147.142 73.0929 146.573 73.0391C146.384 73.0213 146.245 72.8533 146.263 72.6642C146.281 72.4751 146.449 72.3355 146.638 72.354C147.213 72.4082 147.796 72.4708 148.369 72.5401C148.558 72.5629 148.692 72.7343 148.669 72.9231C148.648 73.0976 148.5 73.2259 148.328 73.2259ZM132.769 73.1345C132.595 73.1345 132.445 73.0026 132.427 72.8257C132.407 72.6365 132.545 72.4673 132.734 72.4478C133.31 72.388 133.893 72.3344 134.467 72.2884C134.656 72.2743 134.822 72.4145 134.837 72.604C134.853 72.7936 134.711 72.9596 134.522 72.9747C133.953 73.0202 133.375 73.0735 132.804 73.1325C132.792 73.1338 132.781 73.1345 132.769 73.1345ZM144.879 72.9007C144.871 72.9007 144.864 72.9003 144.855 72.8999C144.286 72.861 143.707 72.8292 143.135 72.805C142.945 72.7968 142.797 72.6363 142.805 72.4465C142.813 72.2564 142.972 72.1061 143.164 72.1171C143.742 72.1415 144.327 72.1737 144.902 72.2131C145.092 72.226 145.235 72.3901 145.222 72.5798C145.21 72.7615 145.059 72.9007 144.879 72.9007ZM136.223 72.8576C136.041 72.8576 135.89 72.7159 135.879 72.5328C135.868 72.343 136.014 72.1803 136.204 72.1696C136.781 72.1371 137.366 72.111 137.942 72.0924C138.135 72.0877 138.292 72.2352 138.298 72.4252C138.304 72.6153 138.155 72.7742 137.965 72.7805C137.394 72.7989 136.815 72.8246 136.242 72.857C136.236 72.8575 136.229 72.8576 136.223 72.8576ZM141.418 72.7539C141.416 72.7539 141.414 72.7537 141.412 72.7537C140.841 72.744 140.261 72.7416 139.688 72.7457C139.687 72.7457 139.686 72.7457 139.686 72.7457C139.497 72.7457 139.343 72.5934 139.341 72.4042C139.34 72.214 139.493 72.0589 139.683 72.0573C140.261 72.0529 140.847 72.0552 141.424 72.0652C141.614 72.0683 141.765 72.225 141.762 72.4153C141.759 72.6035 141.605 72.7537 141.418 72.7539Z" fill="#699FF0"/>
<path d="M257.101 51.5578C257.101 51.5578 259.395 48.6538 258.2 46.9735C257.936 46.603 256.432 48.285 256.432 48.285C256.432 48.285 256.871 50.9866 257.101 51.5578Z" fill="#9C5F33"/>
<path d="M369.318 161.588H1.10173C0.871835 161.588 0.683594 161.4 0.683594 161.17V161.028C0.683594 160.798 0.871835 160.61 1.10173 160.61H369.318C369.548 160.61 369.736 160.798 369.736 161.028V161.17C369.736 161.4 369.548 161.588 369.318 161.588Z" fill="#2E3552"/>
</svg>
